C:\GBW_MyPrograms\PredSim\Subjects\Ines_test\Volwassenen\Volwassenen_v1.mot
version=1
nRows=10
nColumns=31
inDegrees=yes
endheader
                time	         pelvis_tilt	           pelvis_tx	           pelvis_ty	       hip_flexion_r	        knee_angle_r	       ankle_angle_r	       hip_flexion_l	        knee_angle_l	       ankle_angle_l	    lumbar_extension	          arm_flex_r	          arm_flex_l	hamstrings_r/activation	bifemsh_r/activation	glut_max_r/activation	iliopsoas_r/activation	rect_fem_r/activation	  vasti_r/activation	gastroc_r/activation	 soleus_r/activation	tib_ant_r/activation	hamstrings_l/activation	bifemsh_l/activation	glut_max_l/activation	iliopsoas_l/activation	rect_fem_l/activation	  vasti_l/activation	gastroc_l/activation	 soleus_l/activation	tib_ant_l/activation	
          2.99878595	         -1.10569282	          3.57084507	          1.00376919	         -6.03081911	        -28.96905879	        -19.55671399	         18.98173884	        -29.27492720	          5.80341675	         -2.44922878	         -6.19045823	         -6.19049230	          0.43065901	          0.72948971	          0.23383241	          0.92880744	          0.61726572	          0.19029871	          0.57913467	          0.50407603	          0.65653539	          0.51787411	          0.53453351	          0.57882471	          0.39519277	          0.52584195	          0.58991011	          0.14408334	          0.27245062	          0.66610156	
          3.01877786	         -1.03909039	          3.59851093	          0.99586723	         -4.56992929	        -33.83449164	        -19.35931221	         17.12254608	        -29.35419502	          8.27372354	         -2.09548288	         -6.58037943	         -6.58041384	          0.42530690	          0.68163703	          0.19124237	          0.83888450	          0.64788953	          0.17170783	          0.56629228	          0.42394553	          0.72846760	          0.50806929	          0.50227845	          0.76712227	          0.31336212	          0.59339128	          0.74702020	          0.42589213	          0.60614859	          0.50036135	
          3.03876977	         -1.00578898	          3.62447497	          0.99022428	         -2.33516817	        -38.65468692	        -18.56291327	         15.29974647	        -29.15507511	          9.21086658	         -1.88211823	         -6.71840930	         -6.71844139	          0.36174098	          0.71927737	          0.14675144	          0.85008312	          0.76207770	          0.15357528	          0.56686999	          0.38637862	          0.74510118	          0.39955910	          0.43102945	          0.71598668	          0.26705715	          0.72896959	          0.88441644	          0.55496133	          0.73628008	          0.37574017	
          3.05876167	         -1.03687079	          3.64834593	          0.98959134	          0.72866250	        -43.01009502	        -17.71961339	         13.74241448	        -28.79826215	          8.41344966	         -1.80624039	         -6.55361253	         -6.55364424	          0.32705488	          0.73896340	          0.12734562	          0.80364565	          0.80859159	          0.12484849	          0.56629552	          0.36051398	          0.74521830	          0.33902557	          0.38906885	          0.79800415	          0.25582964	          0.76040572	          0.94421644	          0.69731455	          0.85478445	          0.28220602	
          3.07875358	         -1.09628646	          3.67101170	          0.99410554	          4.52082085	        -47.01495991	        -16.88309754	         11.25503321	        -26.38512883	          6.33160888	         -1.80774661	         -6.20931553	         -6.20934439	          0.31808791	          0.71926744	          0.12150341	          0.73233355	          0.80810280	          0.11136438	          0.56184210	          0.33421995	          0.74646343	          0.33940393	          0.39249913	          0.70088428	          0.25089580	          0.71986466	          0.77662743	          0.81178413	          0.91689245	          0.21182145	
          3.09874549	         -1.12367137	          3.69246012	          1.00284079	          8.89775095	        -50.85335938	        -16.09468049	          8.26050200	        -22.73406305	          2.71008074	         -1.96423378	         -5.67940110	         -5.67942881	          0.34119284	          0.68275688	          0.14782870	          0.66266947	          0.75727965	          0.13509284	          0.55806266	          0.32011506	          0.74486829	          0.35737776	          0.47980505	          0.58162433	          0.42841550	          0.65836489	          0.60080261	          0.87523203	          0.92171919	          0.15897610	
          3.11873739	         -1.06403876	          3.71257086	          1.01464088	         13.42908177	        -54.13071076	        -15.44928654	          5.82168685	        -19.76984660	         -2.67245754	         -2.36162258	         -4.94360839	         -4.94363323	          0.39547195	          0.66280862	          0.19695752	          0.62448124	          0.68690084	          0.27596393	          0.55537976	          0.31564120	          0.74137647	          0.31440887	          0.63222797	          0.46900940	          0.70228719	          0.62062021	          0.49458995	          0.87439989	          0.88697048	          0.11930029	
          3.13872930	         -0.89084798	          3.73181135	          1.02851348	         17.29861306	        -55.65529240	        -14.95383239	          4.61984320	        -18.74233745	         -9.56223970	         -2.98514448	         -4.06914385	         -4.06916714	          0.41082462	          0.65432040	          0.29821603	          0.61734472	          0.63586023	          0.44707288	          0.55269359	          0.31606757	          0.73969072	          0.25032390	          0.70477016	          0.36711565	          0.85652246	          0.68457793	          0.41697128	          0.72954597	          0.68299182	          0.08959790	
          3.15872120	         -0.64928403	          3.75112541	          1.04278518	         19.84702667	        -54.61292695	        -14.60700885	          4.42244742	        -19.34257602	        -16.65229707	         -3.67995453	         -3.20268294	         -3.20270383	          0.41881260	          0.63242039	          0.43639870	          0.59238062	          0.60285762	          0.48962437	          0.55070346	          0.32498339	          0.73397058	          0.20312572	          0.63895952	          0.30464809	          0.86510889	          0.80952715	          0.49478072	          0.55125924	          0.51306291	          0.60780956	
          3.17871311	         -0.45767907	          3.77172980	          1.05442678	         21.07084369	        -51.57615138	        -14.48624050	          3.73849897	        -18.18011541	        -18.24383528	         -4.16885867	         -2.53851802	         -2.53853733	          0.33678645	          0.58209755	          0.54352979	          0.54548460	          0.58843629	          0.43449735	          0.54533934	          0.32961307	          0.73241211	          0.16951232	          0.53181438	          0.37471205	          0.74723644	          0.83425820	          0.66067550	          0.43384075	          0.39407014	          0.80896709	
